<!DOCTYPE svg PUBLIC "-//W3C//DTD SVG 1.1//EN" "http://www.w3.org/Graphics/SVG/1.1/DTD/svg11.dtd">
<!-- Uploaded to: SVG Repo, www.svgrepo.com, Transformed by: SVG Repo Mixer Tools -->
<svg height="64px" width="64px" version="1.1" id="Layer_1" xmlns="http://www.w3.org/2000/svg" xmlns:xlink="http://www.w3.org/1999/xlink" viewBox="0 0 511.467 511.467" xml:space="preserve" fill="#000000" transform="rotate(-45)matrix(-1, 0, 0, 1, 0, 0)">
<g id="SVGRepo_bgCarrier" stroke-width="0"/>
<g id="SVGRepo_tracerCarrier" stroke-linecap="round" stroke-linejoin="round"/>
<g id="SVGRepo_iconCarrier"> <g transform="translate(1 1)"> <path style="fill:#FD9808;" d="M279.097,228.867c0-40.96,4.267-80.213,17.067-119.467h-0.853 c-6.827,6.827-16.213,11.947-26.453,14.507c-3.413,34.133-5.12,68.267-5.12,104.96v51.2c0,28.16,2.56,95.573,5.973,130.56 c10.24,2.56,18.773,7.68,25.6,14.507h0.853c-7.68-37.547-17.067-112.64-17.067-145.067 C279.097,280.067,279.097,228.867,279.097,228.867z"/> <path style="fill:#FFDD09;" d="M288.483,450.733c0-28.16-15.36-51.2-34.133-51.2s-34.133,23.04-34.133,51.2 c0,28.16,15.36,51.2,34.133,51.2S288.483,478.893,288.483,450.733"/> <path style="fill:#FFFFFF;" d="M220.217,450.733c0-28.16,15.36-51.2,34.133-51.2c-28.16,0-51.2,23.04-51.2,51.2 c0,28.16,23.04,51.2,51.2,51.2C235.577,501.933,220.217,478.893,220.217,450.733"/> <path style="fill:#FD9808;" d="M254.35,399.533c18.773,0,34.133,23.04,34.133,51.2c0,28.16-15.36,51.2-34.133,51.2 c28.16,0,51.2-23.04,51.2-51.2C305.55,422.573,282.51,399.533,254.35,399.533"/> <path style="fill:#FFDD09;" d="M271.417,109.4L271.417,109.4c-5.973,12.8-13.653,19.627-22.187,16.213 c-4.267-2.56-8.533-7.68-11.947-16.213l0,0c5.12,39.253,6.827,78.507,6.827,119.467v51.2c0,32.427-3.413,98.987-6.827,136.533l0,0 c5.12-12.8,12.8-19.627,21.333-16.213c4.267,2.56,8.533,7.68,11.947,16.213l0,0c-3.413-37.547-6.827-104.107-6.827-136.533v-51.2 C264.59,187.907,266.297,148.653,271.417,109.4"/> <path style="fill:#FFFFFF;" d="M244.11,280.067v-51.2c0-35.84-1.707-69.973-5.12-104.96c-10.24-2.56-18.773-7.68-26.453-14.507 h-0.853c12.8,39.253,17.067,78.507,17.067,119.467v51.2c0,32.427-9.387,107.52-17.067,145.067h0.853 c6.827-6.827,16.213-11.947,25.6-14.507C241.55,375.64,244.11,308.227,244.11,280.067"/> <path style="fill:#FFDD09;" d="M288.483,24.067l-17.067,47.787l-3.413,1.707c-10.24,4.267-22.187,0-29.867-11.947L236.43,58.2 l9.387-50.347c-21.333,6.827-37.547,35.84-33.28,69.12c2.56,23.893,16.213,43.52,33.28,48.64c27.307,7.68,51.2-21.333,51.2-58.88 C297.017,47.96,297.87,35.16,288.483,24.067"/> <path style="fill:#FD9808;" d="M291.897,18.947l-3.413,11.093c5.12,10.24,8.533,22.187,8.533,34.987 c0,32.427-17.92,58.88-40.96,59.733c32.427-0.853,58.027-27.307,58.027-59.733C314.083,47.107,305.55,30.04,291.897,18.947"/> <path style="fill:#FFFFFF;" d="M245.817,123.907c-17.067-4.267-30.72-23.893-33.28-48.64c-4.267-30.72,9.387-58.027,29.867-66.56V7 c-30.72,5.973-52.053,35.84-46.933,69.12c4.267,23.893,23.04,43.52,46.933,48.64c4.267,0.853,7.68,0.853,11.947,0.853 C251.79,124.76,249.23,124.76,245.817,123.907"/> <path d="M245.817,365.4h-21.333c-5.12,0-8.533-3.413-8.533-8.533c0-5.12,3.413-8.533,8.533-8.533h21.333 c5.12,0,8.533,3.413,8.533,8.533C254.35,361.987,250.937,365.4,245.817,365.4z"/> <path d="M245.817,331.267h-17.92c-5.12,0-8.533-3.413-8.533-8.533c0-5.12,3.413-8.533,8.533-8.533h17.92 c5.12,0,8.533,3.413,8.533,8.533C254.35,327.853,250.937,331.267,245.817,331.267z"/> <path d="M254.35,510.467c-33.28,0-59.733-26.453-59.733-59.733S221.07,391,254.35,391s59.733,26.453,59.733,59.733 S287.63,510.467,254.35,510.467z M254.35,408.067c-23.893,0-42.667,18.773-42.667,42.667c0,23.893,18.773,42.667,42.667,42.667 s42.667-18.773,42.667-42.667C297.017,426.84,278.243,408.067,254.35,408.067z"/> <path d="M254.35,135c-4.267,0-9.387-0.853-13.653-1.707c-27.307-5.12-48.64-27.307-53.76-55.467 C180.963,41.133,204.003,7,240.697-0.68c2.56-0.853,5.973,0,7.68,2.56s2.56,5.12,1.707,7.68l-11.947,46.933l0.853,0.853 c7.68,8.533,20.48,11.947,32.427,8.533l0,0l12.8-46.933c0.853-2.56,2.56-5.12,5.973-5.973c2.56-0.853,5.973,0,7.68,1.707 c16.213,12.8,25.6,32.427,25.6,52.907s-9.387,39.253-24.747,52.907C285.923,129.88,270.563,135,254.35,135z M229.603,21.507 c-18.773,10.24-29.867,31.573-25.6,53.76c3.413,20.48,19.627,37.547,40.107,40.96c15.36,3.413,30.72-0.853,42.667-10.24 c11.947-9.387,18.773-23.893,18.773-39.253c0-11.093-3.413-20.48-9.387-29.013l-10.24,36.693c-0.853,2.56-2.56,5.12-5.12,5.973 l-4.267,0.853c-17.92,5.973-38.4,0.853-50.347-13.653l-4.267-4.267c-1.707-1.707-1.707-4.267-0.853-7.68L229.603,21.507z M278.243,71.853L278.243,71.853L278.243,71.853z"/> <path d="M271.417,476.333c-2.56,0-4.267-0.853-5.973-2.56L231.31,439.64c-3.413-3.413-3.413-8.533,0-11.947 c3.413-3.413,8.533-3.413,11.947,0l34.133,34.133c3.413,3.413,3.413,8.533,0,11.947 C275.683,475.48,273.977,476.333,271.417,476.333z"/> <path d="M237.283,476.333c-2.56,0-4.267-0.853-5.973-2.56c-3.413-3.413-3.413-8.533,0-11.947l34.133-34.133 c3.413-3.413,8.533-3.413,11.947,0c3.413,3.413,3.413,8.533,0,11.947l-34.133,34.133 C241.55,475.48,239.843,476.333,237.283,476.333z"/> <path d="M213.39,429.4c-0.853,0-2.56,0-3.413-0.853c-3.413-1.707-5.973-5.973-4.267-10.24 c10.24-39.253,14.507-98.987,14.507-138.24v-51.2c0-44.373-5.12-81.067-17.067-116.907c0-2.56,0-5.12,1.707-7.68 c1.707-1.707,4.267-3.413,6.827-3.413h0.853c2.56,0,4.267,0.853,5.973,2.56c6.827,6.827,16.213,11.947,25.6,13.653 c17.067,3.413,34.133-1.707,46.08-13.653c1.707-1.707,3.413-2.56,5.973-2.56h0.853c2.56,0,5.12,1.707,6.827,3.413 s1.707,5.12,0.853,7.68c-11.093,35.84-17.067,72.533-17.067,116.907v51.2c0,39.253,4.267,98.987,15.36,138.24 c0.853,4.267-0.853,8.533-4.267,10.24c-3.413,1.707-8.533,0.853-10.24-2.56c-8.533-11.093-20.48-17.92-34.133-17.92 s-26.453,6.827-34.133,17.92C218.51,427.693,215.95,429.4,213.39,429.4z M226.19,129.027c7.68,30.72,11.093,63.147,11.093,99.84 v51.2c0,32.427-2.56,79.36-10.24,117.76c16.213-8.533,37.547-8.533,54.613,0c-7.68-38.4-10.24-85.333-10.24-117.76v-51.2 c0-36.693,3.413-69.12,11.093-99.84c-12.8,5.973-27.307,7.68-41.813,5.12C235.577,132.44,231.31,130.733,226.19,129.027z"/> </g> </g>
</svg>